<?xml version="1.0" encoding="UTF-8" standalone="no"?>
<!-- Created with Inkscape (http://www.inkscape.org/) -->

<svg
   xmlns:dc="http://purl.org/dc/elements/1.1/"
   xmlns:cc="http://creativecommons.org/ns#"
   xmlns:rdf="http://www.w3.org/1999/02/22-rdf-syntax-ns#"
   xmlns:svg="http://www.w3.org/2000/svg"
   xmlns="http://www.w3.org/2000/svg"
   xmlns:sodipodi="http://sodipodi.sourceforge.net/DTD/sodipodi-0.dtd"
   xmlns:inkscape="http://www.inkscape.org/namespaces/inkscape"
   width="2.125in"
   height="3.375in"
   viewBox="0 0 53.975 85.725003"
   version="1.1"
   id="svg8"
   inkscape:version="0.92.3 (2405546, 2018-03-11)"
   sodipodi:docname="demo_dl_front_90.svg">
  <defs
     id="defs2">
    <inkscape:path-effect
       effect="bspline"
       id="path-effect4057"
       is_visible="true"
       weight="33.333333"
       steps="2"
       helper_size="0"
       apply_no_weight="true"
       apply_with_weight="true"
       only_selected="false" />
    <inkscape:path-effect
       effect="bspline"
       id="path-effect4053"
       is_visible="true"
       weight="33.333333"
       steps="2"
       helper_size="0"
       apply_no_weight="true"
       apply_with_weight="true"
       only_selected="false" />
    <inkscape:path-effect
       effect="bspline"
       id="path-effect4031"
       is_visible="true"
       weight="33.333333"
       steps="2"
       helper_size="0"
       apply_no_weight="true"
       apply_with_weight="true"
       only_selected="false" />
    <inkscape:path-effect
       effect="bspline"
       id="path-effect4027"
       is_visible="true"
       weight="33.333333"
       steps="2"
       helper_size="0"
       apply_no_weight="true"
       apply_with_weight="true"
       only_selected="false" />
    <inkscape:path-effect
       effect="bspline"
       id="path-effect4023"
       is_visible="true"
       weight="33.333333"
       steps="2"
       helper_size="0"
       apply_no_weight="true"
       apply_with_weight="true"
       only_selected="false" />
    <inkscape:path-effect
       effect="bspline"
       id="path-effect4019"
       is_visible="true"
       weight="33.333333"
       steps="2"
       helper_size="0"
       apply_no_weight="true"
       apply_with_weight="true"
       only_selected="false" />
    <inkscape:path-effect
       effect="bspline"
       id="path-effect3918"
       is_visible="true"
       weight="33.333333"
       steps="2"
       helper_size="0"
       apply_no_weight="true"
       apply_with_weight="true"
       only_selected="false" />
    <inkscape:path-effect
       effect="bspline"
       id="path-effect59"
       is_visible="true"
       weight="33.333333"
       steps="2"
       helper_size="0"
       apply_no_weight="true"
       apply_with_weight="true"
       only_selected="false" />
    <inkscape:path-effect
       effect="bspline"
       id="path-effect2525"
       is_visible="true"
       weight="33.333333"
       steps="2"
       helper_size="0"
       apply_no_weight="true"
       apply_with_weight="true"
       only_selected="false" />
    <inkscape:path-effect
       effect="bspline"
       id="path-effect2521"
       is_visible="true"
       weight="33.333333"
       steps="2"
       helper_size="0"
       apply_no_weight="true"
       apply_with_weight="true"
       only_selected="false" />
    <inkscape:path-effect
       effect="bspline"
       id="path-effect1002"
       is_visible="true"
       weight="33.333333"
       steps="2"
       helper_size="0"
       apply_no_weight="true"
       apply_with_weight="true"
       only_selected="false" />
    <inkscape:path-effect
       effect="bspline"
       id="path-effect85"
       is_visible="true"
       weight="33.333333"
       steps="2"
       helper_size="0"
       apply_no_weight="true"
       apply_with_weight="true"
       only_selected="false" />
    <inkscape:path-effect
       effect="bspline"
       id="path-effect61"
       is_visible="true"
       weight="33.333333"
       steps="2"
       helper_size="0"
       apply_no_weight="true"
       apply_with_weight="true"
       only_selected="false" />
    <inkscape:path-effect
       effect="bspline"
       id="path-effect47"
       is_visible="true"
       weight="33.333333"
       steps="2"
       helper_size="0"
       apply_no_weight="true"
       apply_with_weight="true"
       only_selected="false" />
    <inkscape:path-effect
       effect="bspline"
       id="path-effect4871"
       is_visible="true"
       weight="33.333333"
       steps="2"
       helper_size="0"
       apply_no_weight="true"
       apply_with_weight="true"
       only_selected="false" />
    <inkscape:path-effect
       effect="bspline"
       id="path-effect4849"
       is_visible="true"
       weight="33.333333"
       steps="2"
       helper_size="0"
       apply_no_weight="true"
       apply_with_weight="true"
       only_selected="false" />
    <inkscape:path-effect
       effect="bspline"
       id="path-effect4825"
       is_visible="true"
       weight="33.333333"
       steps="2"
       helper_size="0"
       apply_no_weight="true"
       apply_with_weight="true"
       only_selected="false" />
    <inkscape:path-effect
       effect="bspline"
       id="path-effect4803"
       is_visible="true"
       weight="33.333333"
       steps="2"
       helper_size="0"
       apply_no_weight="true"
       apply_with_weight="true"
       only_selected="false" />
    <inkscape:path-effect
       effect="bspline"
       id="path-effect4781"
       is_visible="true"
       weight="33.333333"
       steps="2"
       helper_size="0"
       apply_no_weight="true"
       apply_with_weight="true"
       only_selected="false" />
    <inkscape:path-effect
       effect="bspline"
       id="path-effect4781-2"
       is_visible="true"
       weight="33.333333"
       steps="2"
       helper_size="0"
       apply_no_weight="true"
       apply_with_weight="true"
       only_selected="false" />
    <inkscape:path-effect
       effect="bspline"
       id="path-effect4803-7"
       is_visible="true"
       weight="33.333333"
       steps="2"
       helper_size="0"
       apply_no_weight="true"
       apply_with_weight="true"
       only_selected="false" />
    <inkscape:path-effect
       effect="bspline"
       id="path-effect4849-5"
       is_visible="true"
       weight="33.333333"
       steps="2"
       helper_size="0"
       apply_no_weight="true"
       apply_with_weight="true"
       only_selected="false" />
    <inkscape:path-effect
       effect="bspline"
       id="path-effect61-2"
       is_visible="true"
       weight="33.333333"
       steps="2"
       helper_size="0"
       apply_no_weight="true"
       apply_with_weight="true"
       only_selected="false" />
    <inkscape:path-effect
       effect="bspline"
       id="path-effect4023-1"
       is_visible="true"
       weight="33.333333"
       steps="2"
       helper_size="0"
       apply_no_weight="true"
       apply_with_weight="true"
       only_selected="false" />
    <inkscape:path-effect
       effect="bspline"
       id="path-effect4057-5"
       is_visible="true"
       weight="33.333333"
       steps="2"
       helper_size="0"
       apply_no_weight="true"
       apply_with_weight="true"
       only_selected="false" />
    <inkscape:path-effect
       effect="bspline"
       id="path-effect85-1"
       is_visible="true"
       weight="33.333333"
       steps="2"
       helper_size="0"
       apply_no_weight="true"
       apply_with_weight="true"
       only_selected="false" />
    <inkscape:path-effect
       effect="bspline"
       id="path-effect4871-1"
       is_visible="true"
       weight="33.333333"
       steps="2"
       helper_size="0"
       apply_no_weight="true"
       apply_with_weight="true"
       only_selected="false" />
    <inkscape:path-effect
       effect="bspline"
       id="path-effect61-2-9"
       is_visible="true"
       weight="33.333333"
       steps="2"
       helper_size="0"
       apply_no_weight="true"
       apply_with_weight="true"
       only_selected="false" />
    <inkscape:path-effect
       effect="bspline"
       id="path-effect4849-3"
       is_visible="true"
       weight="33.333333"
       steps="2"
       helper_size="0"
       apply_no_weight="true"
       apply_with_weight="true"
       only_selected="false" />
  </defs>
  <sodipodi:namedview
     id="base"
     pagecolor="#ffffff"
     bordercolor="#666666"
     borderopacity="1.0"
     inkscape:pageopacity="0.0"
     inkscape:pageshadow="2"
     inkscape:zoom="18.933563"
     inkscape:cx="6.2891106"
     inkscape:cy="315.12936"
     inkscape:document-units="in"
     inkscape:current-layer="layer3"
     showgrid="false"
     inkscape:measure-start="0,0"
     inkscape:measure-end="0,0"
     inkscape:window-width="1680"
     inkscape:window-height="988"
     inkscape:window-x="1672"
     inkscape:window-y="-8"
     inkscape:window-maximized="1"
     inkscape:object-nodes="false"
     inkscape:snap-intersection-paths="true"
     inkscape:snap-global="false"
     showguides="true"
     units="in">
    <inkscape:grid
       type="xygrid"
       id="grid4969"
       originx="-7.7254317"
       originy="-200.8486" />
  </sodipodi:namedview>
  <metadata
     id="metadata5">
    <rdf:RDF>
      <cc:Work
         rdf:about="">
        <dc:format>image/svg+xml</dc:format>
        <dc:type
           rdf:resource="http://purl.org/dc/dcmitype/StillImage" />
        <dc:title></dc:title>
      </cc:Work>
    </rdf:RDF>
  </metadata>
  <g
     inkscape:groupmode="layer"
     id="layer3"
     inkscape:label="Layer 2"
     style="display:inline"
     transform="translate(0,31.750001)">
    <g
       id="g1000"
       transform="rotate(90,69.034707,-3.0412066)">
      <rect
         ry="4.0612135"
         y="12.403957"
         x="40.733936"
         height="53.190197"
         width="84.931511"
         id="rect61"
         style="display:inline;opacity:1;fill:#ececec;fill-opacity:1;stroke:#1a1a1a;stroke-width:0.76200002;stroke-miterlimit:4;stroke-dasharray:none" />
      <rect
         ry="0.6236558"
         y="24.902903"
         x="47.192638"
         height="29.876928"
         width="24.349854"
         id="rect4537"
         style="display:inline;fill:#ffffff;fill-opacity:1;stroke:#999999;stroke-width:0.38100001;stroke-miterlimit:4;stroke-dasharray:none" />
      <path
         inkscape:path-effect="#path-effect4849-3"
         sodipodi:nodetypes="cccccccc"
         inkscape:original-d="m 50.644116,51.234476 c 0.166565,-6.863511 0.353753,-13.726837 0.530365,-20.589978 1.820003,-1.109269 3.639934,-2.218413 5.459638,-3.327341 0.977597,-0.02214 1.955246,-0.04411 2.932602,-0.06588 0.977356,0.02146 1.955006,0.04311 2.932603,0.06495 1.8197,1.093192 3.639635,2.186596 5.459636,3.280123 0.176612,6.765747 0.3638,13.531677 0.530366,20.29779 z"
         inkscape:connector-curvature="0"
         id="path4847"
         d="m 50.732509,47.802852 c 0.08839,-3.431624 0.265189,-10.295217 1.2636,-14.281391 0.998411,-3.986174 2.818341,-5.095319 4.216976,-5.660792 1.398635,-0.565474 2.376284,-0.587436 3.353636,-0.587591 0.977352,-1.55e-4 1.955002,0.0215 3.353636,0.578947 1.398634,0.557449 3.218567,1.650856 4.216977,5.580462 0.99841,3.929606 1.175206,10.695807 1.263599,14.07873 0.08839,3.382923 -17.756817,3.723259 -17.668424,0.291635 z"
         style="display:inline;fill:#666666;stroke:#4d4d4d;stroke-width:0.26549029px;stroke-linecap:butt;stroke-linejoin:miter;stroke-opacity:1" />
      <path
         inkscape:path-effect="#path-effect61-2-9"
         sodipodi:nodetypes="ccccccccccc"
         inkscape:original-d="m 47.497843,56.073382 c 0.939389,-1.810506 1.879102,-3.621092 2.818694,-5.430909 1.186645,0.086 2.373515,0.172204 3.560457,0.258615 1.100228,-0.804596 2.200273,-1.609281 3.300841,-2.413736 0.04928,-1.96855 0.09872,-3.936894 0.148351,-5.905037 l 4.363211,0.01855 c 0.04963,1.968143 0.09908,3.936487 0.148352,5.905037 1.100567,0.804455 2.200728,1.608966 3.30084,2.413736 1.186944,-0.08639 2.373813,-0.172614 3.560456,-0.258614 0.939593,1.809816 1.879304,3.620402 2.818693,5.430909 z"
         inkscape:connector-curvature="0"
         id="path59-5"
         d="m 47.967648,55.168186 c 0.469805,-0.905195 1.409517,-2.715782 2.472519,-3.577652 1.063001,-0.86187 2.249871,-0.775661 3.393476,-1.134833 1.143605,-0.359173 2.243783,-1.163676 2.818715,-2.550285 0.574932,-1.38661 0.624383,-3.354953 0.649105,-4.339027 0.02472,-0.984074 4.387934,-0.965524 4.412657,0.01855 0.02472,0.984074 0.07417,2.952418 0.649105,4.339026 0.574932,1.386609 1.675102,2.191108 2.818712,2.550283 1.143609,0.359175 2.330479,0.272967 3.393479,1.134837 1.063,0.86187 2.002711,2.672456 2.472517,3.577652 0.469805,0.905196 -23.55009,0.886645 -23.080285,-0.01855 z"
         style="display:inline;fill:#e6e6e6;stroke:#cccccc;stroke-width:0.26458332px;stroke-linecap:butt;stroke-linejoin:miter;stroke-opacity:1" />
      <path
         inkscape:path-effect="#path-effect4871-1"
         sodipodi:nodetypes="ccccccccccccc"
         inkscape:original-d="m 62.294384,46.725071 c 0.529075,-0.625568 1.05831,-1.250913 1.587755,-1.876089 0.726246,-1.142696 1.45261,-2.285093 2.179269,-3.427473 -0.03131,-2.525708 -0.06244,-5.051214 -0.0934,-7.576513 l -0.01311,-0.243136 c -2.109903,0.929338 -4.220079,1.85892 -6.330241,2.788624 -2.165264,-0.929746 -4.330703,-1.859286 -6.49632,-2.788622 l 0.01311,0.243134 c -0.03096,2.5253 -0.06209,5.050805 -0.0934,7.576515 0.726659,1.142378 1.453023,2.284775 2.17927,3.427471 0.529444,0.625176 1.058679,1.250521 1.587753,1.876089 0.899192,0.263107 1.769792,0.523883 2.697038,0.789929 0.955658,-0.260979 1.868873,-0.525557 2.78227,-0.789929 z"
         inkscape:connector-curvature="0"
         id="path4869"
         d="m 62.559024,46.412373 c 0.264639,-0.312697 0.793875,-0.938042 1.421727,-1.821995 0.627853,-0.883953 1.354216,-2.02635 1.701869,-3.860465 0.347652,-1.834114 0.316519,-4.35962 0.300953,-5.622269 -0.01557,-1.262648 -0.02868,-1.505784 -1.083603,-1.041063 -1.054929,0.464722 -3.165104,1.394305 -5.302892,1.39435 -2.137787,4.4e-5 -4.303226,-0.929496 -5.385983,-1.394283 -1.082758,-0.464786 -1.069648,-0.221652 -1.085213,1.040997 -0.01557,1.262649 -0.0467,3.788154 0.300953,5.622268 0.347652,1.834115 1.074016,2.976512 1.701869,3.860465 0.627852,0.883953 1.157088,1.509298 1.871288,1.953666 0.714201,0.444369 1.586362,0.699814 2.525709,0.700108 0.939346,2.94e-4 1.853955,-0.259377 2.311316,-0.389229 0.457361,-0.129852 0.457367,-0.129852 0.722007,-0.44255 z"
         style="display:inline;fill:#e6e6e6;stroke:#cccccc;stroke-width:0.26458332px;stroke-linecap:butt;stroke-linejoin:miter;stroke-opacity:1" />
      <path
         inkscape:path-effect="#path-effect85-1"
         inkscape:original-d="m 50.562971,51.219752 c 0.284518,-0.130114 0.56886,-0.260041 0.853026,-0.389784 0.432547,-0.117033 0.865564,-0.234056 1.298083,-0.350806 0.370879,-0.06512 0.741938,-0.130114 1.112642,-0.194895 0.407926,0.116689 0.816115,0.233686 1.223907,0.350809 1.063058,0.272581 2.12656,0.545512 3.189576,0.818546 1.125049,0.06477 2.250187,0.129744 3.375016,0.194895 1.100294,-0.441878 2.200737,-0.883698 3.300841,-1.325271 0.136137,-0.02617 0.272154,-0.05216 0.407967,-0.07796 0.296442,0.103606 0.593587,0.207701 0.890115,0.31183 0.284416,0.03878 0.568859,0.07777 0.853025,0.116935 0.321437,0.11669 0.643038,0.233686 0.964292,0.350806 0.222631,0.09074 0.445233,0.181713 0.667584,0.272852 -0.197543,1.545309 -0.395431,3.092106 -0.593408,4.638439 -0.02455,-0.02619 -0.04928,-0.05216 -0.07418,-0.07796 -0.753949,0.0258 -1.508073,0.05179 -2.262374,0.07796 -1.224025,0.01281 -2.447636,0.0258 -3.671719,0.03898 -0.927161,-1.85e-4 -1.854229,-1.85e-4 -2.781607,0 -1.063218,-1.85e-4 -2.126208,-1.85e-4 -3.189576,0 -0.951909,-0.03917 -1.903679,-0.07814 -2.855783,-0.116936 -0.853001,-0.05217 -1.705876,-0.104129 -2.559078,-0.155913 -0.03692,-0.01318 -0.074,-0.02617 -0.111264,-0.03898 -0.01222,-1.485585 -0.02455,-2.96255 -0.03709,-4.443548 z"
         inkscape:connector-curvature="0"
         id="path83"
         d="m 50.70525,51.154739 c 0.142279,-0.06501 0.426621,-0.194941 0.784975,-0.318309 0.358354,-0.123367 0.791371,-0.240389 1.193066,-0.331313 0.401694,-0.09092 0.772753,-0.155921 1.162024,-0.129932 0.389271,0.02599 0.797459,0.142987 1.532887,0.337839 0.735429,0.194852 1.798932,0.46778 2.892986,0.636673 1.094055,0.168892 2.219193,0.233865 3.33178,0.04545 1.112587,-0.188412 2.213029,-0.630234 2.831144,-0.864079 0.618116,-0.233845 0.754132,-0.259837 0.970207,-0.220899 0.216075,0.03894 0.51322,0.143036 0.803716,0.214482 0.290497,0.07145 0.57494,0.110439 0.877716,0.188372 0.302775,0.07793 0.624376,0.194931 0.896314,0.298859 0.271938,0.103929 0.494538,0.194908 0.506912,1.013011 0.01237,0.818103 -0.185511,2.3649 -0.296798,3.125073 -0.111286,0.760174 -0.136006,0.734194 -0.525335,0.734197 -0.38933,2e-6 -1.143454,0.02599 -2.132619,0.04548 -0.989165,0.01949 -2.212776,0.03248 -3.288399,0.03898 -1.075623,0.0065 -2.002691,0.0065 -2.997989,0.0065 -0.995298,0 -2.058288,0 -3.06593,-0.01949 -1.007643,-0.01949 -1.959413,-0.05846 -2.861967,-0.103939 -0.902555,-0.04548 -1.75543,-0.09744 -2.200523,-0.129911 -0.445094,-0.03247 -0.482173,-0.04546 -0.506967,-0.794768 -0.02479,-0.749305 -0.03712,-2.226271 -0.0433,-2.96677 -0.0062,-0.7405 -0.0062,-0.740499 0.136103,-0.805512 z"
         style="display:inline;fill:#b3b3b3;stroke:#999999;stroke-width:0.26458332px;stroke-linecap:butt;stroke-linejoin:miter;stroke-opacity:1" />
      <rect
         transform="scale(1,-1)"
         y="-54.76923"
         x="48.05373"
         height="0.029233869"
         width="4.9929838"
         id="rect1004"
         style="display:inline;opacity:1;fill:#b3b3b3;fill-opacity:1;stroke:#999999;stroke-width:0.26458332" />
      <rect
         transform="scale(1,-1)"
         y="-54.76881"
         x="53.091915"
         height="0.029233869"
         width="4.9929838"
         id="rect1004-9"
         style="display:inline;opacity:1;fill:#b3b3b3;fill-opacity:1;stroke:#999999;stroke-width:0.26458332" />
      <rect
         transform="scale(1,-1)"
         y="-54.768002"
         x="58.141479"
         height="0.029233869"
         width="4.9929838"
         id="rect1004-7"
         style="display:inline;opacity:1;fill:#b3b3b3;fill-opacity:1;stroke:#999999;stroke-width:0.26458332" />
      <rect
         transform="scale(1,-1)"
         y="-54.768002"
         x="63.219345"
         height="0.029233869"
         width="4.9929838"
         id="rect1004-2"
         style="display:inline;opacity:1;fill:#b3b3b3;fill-opacity:1;stroke:#999999;stroke-width:0.26458332" />
      <rect
         transform="scale(1,-1)"
         y="-54.76796"
         x="67.217117"
         height="0.029233869"
         width="3.7636759"
         id="rect1004-3"
         style="display:inline;opacity:1;fill:#b3b3b3;fill-opacity:1;stroke:#999999;stroke-width:0.26458332" />
      <rect
         y="54.945782"
         x="41.747688"
         height="1.7379575"
         width="37.666527"
         id="rect94"
         style="display:inline;opacity:1;fill:#ececec;fill-opacity:1;stroke:none;stroke-width:0.26458332" />
      <rect
         ry="1.712395"
         y="38.604675"
         x="77.829742"
         height="3.4247899"
         width="38.127316"
         id="rect4881-0-9-0-1-7"
         style="display:inline;fill:#666666;fill-opacity:1;stroke:#666666;stroke-width:0.17802134" />
      <rect
         ry="1.712395"
         y="32.253239"
         x="75.105583"
         height="3.4247899"
         width="44.0504"
         id="rect4881-0-9-0-1"
         style="display:inline;fill:#666666;fill-opacity:1;stroke:#666666;stroke-width:0.17802134" />
      <rect
         ry="1.2188047"
         y="49.957256"
         x="78.076546"
         height="2.4376094"
         width="15.915753"
         id="rect4881-0-9-0-1-15-8"
         style="display:inline;fill:#666666;fill-opacity:1;stroke:#666666;stroke-width:0.17802134" />
      <g
         id="text86"
         style="font-style:normal;font-variant:normal;font-weight:normal;font-stretch:normal;font-size:7.76111126px;line-height:1.25;font-family:'Vladimir Script';-inkscape-font-specification:'Vladimir Script';letter-spacing:0px;word-spacing:0px;display:inline;fill:#000000;fill-opacity:1;stroke:none;stroke-width:0.26458335"
         aria-label="Jane Doe"
         transform="translate(40.327958,-22.164826)">
        <path
           inkscape:connector-curvature="0"
           id="path90"
           style="font-style:normal;font-variant:normal;font-weight:normal;font-stretch:normal;font-size:7.76111126px;font-family:'Vladimir Script';-inkscape-font-specification:'Vladimir Script';stroke-width:0.26458335"
           d="m 9.0633479,83.324281 q 0.1894802,0.01516 0.1894802,0.181902 0,0.174321 -0.1477946,0.174321 -0.034106,0 -0.041686,-0.01895 -0.00758,-0.01516 0,-0.04169 0.00758,-0.0379 0.00758,-0.04548 0,-0.07958 -0.1743219,-0.072 -1.0535102,1.117933 -1.6939534,1.659847 -1.2543593,1.072458 -1.9933323,1.072458 -0.1743219,0 -0.28801,-0.109898 -0.1174778,-0.109899 -0.1174778,-0.284221 0,-0.390329 0.6480225,-0.966349 0.5835992,-0.522966 1.4400499,-0.95877 0.8753988,-0.443384 1.621951,-0.583599 0.5305447,-0.530545 1.6030025,-1.906172 1.189936,-1.519631 1.360468,-1.993332 0.07579,-0.216007 0.07579,-0.329696 0,-0.144005 -0.128846,-0.144005 -0.515386,0 -1.62953,0.447174 -1.1255127,0.450963 -2.0539659,1.24678 -0.9398221,0.807186 -0.9398221,1.390785 0,0.462332 0.4850695,0.462332 0.6707601,0 1.6295302,-0.522966 0.8943468,-0.488859 1.0951953,-0.95498 0.02274,-0.04927 0.04927,-0.06442 0.09095,-0.0038 0.09095,0.147795 0,0.216008 -0.4206462,0.606337 -0.4016982,0.371381 -1.1027751,0.685918 -0.738973,0.329696 -1.2392009,0.329696 -0.3713813,0 -0.6252848,-0.261483 -0.250114,-0.265272 -0.250114,-0.640443 0,-0.720025 0.9360325,-1.493104 0.8033963,-0.663181 1.9895427,-1.15204 1.1217228,-0.458543 1.8076408,-0.458543 0.57602,0 0.57602,0.454753 0,0.890557 -2.7588317,4.142038 z M 8.3281645,83.52892 q -0.701077,0.181901 -1.584055,0.689708 -0.8943468,0.511597 -1.3869954,1.023194 -0.4168566,0.428225 -0.4168566,0.636653 0,0.19327 0.2387451,0.19327 0.1932699,0 0.4471734,-0.121267 0.3562229,-0.174322 1.3680475,-1.114144 0.7503418,-0.697287 1.333941,-1.307414 z" />
        <path
           inkscape:connector-curvature="0"
           id="path92"
           style="font-style:normal;font-variant:normal;font-weight:normal;font-stretch:normal;font-size:7.76111126px;font-family:'Vladimir Script';-inkscape-font-specification:'Vladimir Script';stroke-width:0.26458335"
           d="m 10.939203,83.305333 q -1.0118249,0.795818 -1.3945751,0.795818 -0.045475,0 -0.045475,-0.04927 0,-0.06821 0.09095,-0.08337 0.3562229,-0.05684 0.9852981,-0.549492 l 0.488859,-0.382751 0.784448,-0.625284 q 0.538124,-0.371382 0.920874,-0.371382 0.28422,0 0.318327,0.284221 0.147794,-0.140216 0.204638,-0.140216 0.125057,0 0.125057,0.10232 0,0.132636 -0.583599,0.810975 -0.579809,0.678339 -0.579809,0.792028 0,0.07958 0.125057,0.08337 0.125057,0.0038 0.125057,0.06442 0,0.07579 -0.257694,0.07579 -0.253903,0 -0.253903,-0.223586 0,-0.178112 0.204639,-0.507807 l -0.469912,0.397908 q -0.344854,0.257693 -0.549492,0.257693 -0.325906,0 -0.325906,-0.329695 0,-0.181901 0.08716,-0.401699 z m 1.883433,-1.110354 q -0.223586,0 -0.924663,0.666971 -0.701077,0.66697 -0.701077,0.890557 0,0.102319 0.09853,0.102319 0.216008,0 0.924664,-0.651812 0.712446,-0.655602 0.712446,-0.882978 0,-0.125057 -0.1099,-0.125057 z" />
        <path
           inkscape:connector-curvature="0"
           id="path94"
           style="font-style:normal;font-variant:normal;font-weight:normal;font-stretch:normal;font-size:7.76111126px;font-family:'Vladimir Script';-inkscape-font-specification:'Vladimir Script';stroke-width:0.26458335"
           d="m 14.967553,82.9529 q 1.042141,-0.882978 1.462788,-0.882978 0.269062,0 0.269062,0.253904 0,0.223586 -0.610127,0.810975 -0.610126,0.583599 -0.610126,0.704867 0,0.121267 0.136425,0.132636 0.136426,0.0076 0.136426,0.06442 0,0.07579 -0.272851,0.07579 -0.314538,0 -0.314538,-0.28043 0,-0.234956 0.303169,-0.594968 0.155374,-0.185691 0.560861,-0.572231 0.303169,-0.28801 0.303169,-0.348643 0,-0.04927 -0.06821,-0.04927 -0.216008,0 -0.939822,0.57602 -0.602547,0.47749 -0.894347,0.784448 -0.371381,0.390329 -0.450963,0.390329 -0.06063,0 -0.109899,-0.05684 -0.04926,-0.06063 -0.04926,-0.125057 0,-0.08716 0.522965,-0.704866 l 0.625285,-0.738973 -0.970139,0.788237 -0.716235,0.549493 q -0.545703,0.371382 -0.837503,0.371382 -0.04927,0 -0.04927,-0.04548 0,-0.06821 0.106109,-0.09095 0.144005,-0.02653 0.337275,-0.113688 0.276641,-0.121268 1.129302,-0.810976 0.7655,-0.621495 1.102775,-0.951191 0.05684,-0.05684 0.178112,-0.136426 0.06063,-0.02274 0.128846,-0.02274 0.06442,0 0.128847,0.04548 0.06821,0.04169 0.06821,0.102319 0,0.06821 -0.606337,0.875399 z" />
        <path
           inkscape:connector-curvature="0"
           id="path96"
           style="font-style:normal;font-variant:normal;font-weight:normal;font-stretch:normal;font-size:7.76111126px;font-family:'Vladimir Script';-inkscape-font-specification:'Vladimir Script';stroke-width:0.26458335"
           d="m 17.112469,83.487234 q -0.18948,0.04548 -0.712446,0.348644 -0.462332,0.265273 -0.701077,0.265273 -0.04547,0 -0.04547,-0.04927 0,-0.06821 0.09853,-0.08337 0.231166,-0.0379 0.651812,-0.28422 0.462332,-0.265272 0.754131,-0.333485 0.174322,-0.420646 0.720025,-0.882978 0.57981,-0.496439 0.989087,-0.496439 0.303169,0 0.303169,0.257694 0,0.337274 -0.640444,0.735183 -0.469911,0.295589 -0.962559,0.462332 -0.05306,0.121267 -0.05306,0.253903 0,0.19706 0.136426,0.257693 0.06821,0.02653 0.257693,0.03411 0.136426,0.0038 0.136426,0.06442 0,0.09474 -0.466122,0.09474 -0.492648,0 -0.492648,-0.428225 0,-0.09853 0.02653,-0.216008 z m 0.500228,-0.212217 q 0.348644,-0.170533 0.735183,-0.462332 0.515387,-0.38275 0.515387,-0.606337 0,-0.09095 -0.08337,-0.09095 -0.246324,0 -0.67076,0.454753 -0.37896,0.413067 -0.496438,0.704867 z" />
        <path
           inkscape:connector-curvature="0"
           id="path98"
           style="font-style:normal;font-variant:normal;font-weight:normal;font-stretch:normal;font-size:7.76111126px;font-family:'Vladimir Script';-inkscape-font-specification:'Vladimir Script';stroke-width:0.26458335"
           d="m 25.991514,79.231508 q 0.155374,-0.0076 0.250114,-0.0076 0.447173,0 0.689708,0.113688 0.2918,0.132636 0.485069,0.492649 0.159164,0.306958 0.159164,0.591178 0,0.86782 -0.86403,1.830379 -0.682129,0.757921 -1.512053,1.311204 -1.042141,0.693497 -1.841748,0.693497 -0.360012,0 -0.583599,-0.212218 -0.223587,-0.212217 -0.223587,-0.57223 0,-0.219797 0.06063,-0.435805 l -0.871609,0.954981 q -0.09853,0.109899 -0.19327,0.109899 -0.162953,0 -0.162953,-0.147795 0,-0.05306 0.04547,-0.144005 0.121268,-0.261483 1.693954,-1.966805 l 1.936488,-2.103231 q -0.712446,0.128847 -1.197515,0.318327 -0.48507,0.185691 -0.613916,0.185691 -0.174322,0 -0.174322,-0.113689 0,-0.102319 0.704866,-0.371381 0.704867,-0.269062 1.739429,-0.458542 l 0.219797,-0.200849 q 0.162953,-0.147795 0.216008,-0.147795 0.102319,0 0.102319,0.132636 0,0.04548 -0.06442,0.147795 z m -0.272852,0.405488 -2.485981,2.701988 q -0.303168,0.333485 -0.386539,0.473701 -0.144005,0.246324 -0.144005,0.587389 0,0.511596 0.549492,0.511596 0.644233,0 1.63711,-0.651812 0.95877,-0.632864 1.659847,-1.474156 0.76171,-0.913295 0.76171,-1.565107 0,-0.659391 -0.822344,-0.659391 -0.363802,0 -0.76929,0.07579 z" />
        <path
           inkscape:connector-curvature="0"
           id="path100"
           style="font-style:normal;font-variant:normal;font-weight:normal;font-stretch:normal;font-size:7.76111126px;font-family:'Vladimir Script';-inkscape-font-specification:'Vladimir Script';stroke-width:0.26458335"
           d="m 27.317876,83.089326 -0.780659,0.594968 q -0.598758,0.416857 -0.894347,0.416857 -0.04547,0 -0.04547,-0.04548 0,-0.072 0.07579,-0.08716 0.231166,-0.04169 0.394119,-0.132636 0.28422,-0.155374 0.924664,-0.663181 l 1.000455,-0.822344 q 0.28801,-0.253904 0.352434,-0.253904 0.09474,0 0.208428,0.106109 0.219797,-0.166742 0.390329,-0.166742 0.257693,0 0.257693,0.276641 0,0.413067 -0.659391,1.125513 -0.67076,0.720025 -1.083827,0.720025 -0.38654,0 -0.38654,-0.405488 0,-0.212218 0.246325,-0.663181 z m 1.284676,0.0076 q 0.140215,-0.132636 0.280431,-0.360012 0.155373,-0.261483 0.155373,-0.416857 0,-0.144005 -0.125057,-0.144005 -0.18569,0 -0.37517,0.234956 -0.185691,0.231166 -0.185691,0.420646 0,0.212218 0.250114,0.265272 z m -0.371381,-0.4737 q -0.77308,0.674549 -0.77308,1.098985 0,0.181901 0.174322,0.181901 0.28422,0 0.886767,-0.685918 -0.318326,-0.07579 -0.318326,-0.409278 0,-0.08716 0.03032,-0.18569 z" />
        <path
           inkscape:connector-curvature="0"
           id="path102"
           style="font-style:normal;font-variant:normal;font-weight:normal;font-stretch:normal;font-size:7.76111126px;font-family:'Vladimir Script';-inkscape-font-specification:'Vladimir Script';stroke-width:0.26458335"
           d="m 29.784909,83.487234 q -0.189481,0.04548 -0.712446,0.348644 -0.462332,0.265273 -0.701077,0.265273 -0.04547,0 -0.04547,-0.04927 0,-0.06821 0.09853,-0.08337 0.231166,-0.0379 0.651812,-0.28422 0.462332,-0.265272 0.754132,-0.333485 0.174322,-0.420646 0.720025,-0.882978 0.579809,-0.496439 0.989087,-0.496439 0.303168,0 0.303168,0.257694 0,0.337274 -0.640443,0.735183 -0.469911,0.295589 -0.96256,0.462332 -0.05305,0.121267 -0.05305,0.253903 0,0.19706 0.136425,0.257693 0.06821,0.02653 0.257694,0.03411 0.136425,0.0038 0.136425,0.06442 0,0.09474 -0.466121,0.09474 -0.492649,0 -0.492649,-0.428225 0,-0.09853 0.02653,-0.216008 z m 0.500227,-0.212217 q 0.348644,-0.170533 0.735184,-0.462332 0.515386,-0.38275 0.515386,-0.606337 0,-0.09095 -0.08337,-0.09095 -0.246325,0 -0.67076,0.454753 -0.378961,0.413067 -0.496439,0.704867 z" />
      </g>
      <rect
         ry="1.2188047"
         y="20.144394"
         x="51.323948"
         height="2.4376094"
         width="15.915753"
         id="rect4881-0-9-0-1-15-9"
         style="display:inline;fill:#666666;fill-opacity:1;stroke:#666666;stroke-width:0.17802134" />
      <rect
         ry="1.712395"
         y="25.870659"
         x="85.417725"
         height="3.4247899"
         width="22.529863"
         id="rect4881-0-9-0-1-9"
         style="display:inline;fill:#666666;fill-opacity:1;stroke:#666666;stroke-width:0.17802136" />
      <rect
         ry="0.67585534"
         y="45.416218"
         x="75.065643"
         height="1.3517107"
         width="44.0504"
         id="rect4881-0-9-0-1-1"
         style="display:inline;fill:#666666;fill-opacity:1;stroke:#666666;stroke-width:0.17802134" />
      <rect
         ry="1.2188047"
         y="49.858532"
         x="99.547714"
         height="2.4376094"
         width="15.915753"
         id="rect4881-0-9-0-1-15"
         style="display:inline;fill:#666666;fill-opacity:1;stroke:#666666;stroke-width:0.17802134" />
    </g>
  </g>
</svg>
